<?xml version="1.0" encoding="UTF-8"?>
<svg width="512pt" height="512pt" version="1.1" viewBox="0 0 512 512" xmlns="http://www.w3.org/2000/svg">
 <path d="m389.12 378.88c5.4297 0 10.641-2.1562 14.48-5.9961 3.8398-3.8438 6-9.0508 6-14.484v-20.477c0-32.59-12.949-63.848-35.992-86.891-23.043-23.047-54.301-35.992-86.891-35.992h-124.62l46.949-46.949h0.003906c5.1758-5.1758 7.1953-12.723 5.3008-19.793-1.8945-7.0703-7.418-12.594-14.488-14.488-7.0703-1.8984-14.617 0.125-19.793 5.3008l-64.41 64.461c-8.4805 8.4805-13.246 19.98-13.246 31.977 0 11.992 4.7656 23.496 13.246 31.973l69.531 69.531c5.1758 5.1758 12.723 7.1953 19.793 5.3008 7.0703-1.8945 12.594-7.418 14.488-14.488 1.8945-7.0703-0.125-14.617-5.3047-19.793l-52.07-52.07h124.62c21.727 0 42.566 8.6289 57.926 23.992 15.363 15.363 23.996 36.203 23.996 57.93v20.48-0.003906c0 5.4336 2.1562 10.641 5.9961 14.484 3.8438 3.8398 9.0508 5.9961 14.484 5.9961z" fill="#fff"/>
</svg>
