<?xml version="1.0" encoding="UTF-8"?>
<svg width="512pt" height="512pt" version="1.1" viewBox="0 0 512 512" xmlns="http://www.w3.org/2000/svg">
 <path d="m237.76 114.13c-2.9961 0.30859-5.3828 2.6484-5.7422 5.6406l-3.125 23.879c-11.875 2.8555-23.016 7.5-33.152 13.703l-19.145-14.711 0.003906 0.003907c-2.5781-1.9453-6.1914-1.6875-8.4648 0.60547l-12.496 12.395-12.395 12.496v-0.003906c-2.2891 2.2734-2.5469 5.8867-0.60156 8.4648l14.711 19.145c-6.1797 10.121-10.844 21.27-13.703 33.152l-23.883 3.1211c-3.2031 0.40234-5.6172 3.1172-5.6406 6.3477v35.266c0.023438 3.2305 2.4375 5.9453 5.6406 6.3477l23.879 3.125c2.8555 11.875 7.5 23.016 13.703 33.152l-14.711 19.145 0.003906-0.003906c-1.9453 2.5781-1.6875 6.1914 0.60156 8.4648l12.395 12.395h0.10156l12.395 12.496c2.2695 2.2891 5.8867 2.5469 8.4609 0.60156l19.145-14.711c10.129 6.2031 21.27 10.844 33.152 13.703l3.125 23.879v0.003906c0.40234 3.2031 3.1172 5.6172 6.3477 5.6406h35.266c3.2305-0.023438 5.9453-2.4375 6.3477-5.6406l3.125-23.879c11.879-2.8594 23.02-7.5 33.152-13.703l19.145 14.711v-0.003906c2.5742 1.9453 6.1914 1.6875 8.4609-0.60156l12.395-12.496 12.496-12.395c2.2891-2.2734 2.5469-5.8867 0.60156-8.4648l-14.711-19.145c6.2031-10.137 10.848-21.273 13.703-33.152l23.879-3.125 0.003907 0.003906c3.207-0.40234 5.6172-3.1172 5.6445-6.3477v-35.266c-0.027344-3.2305-2.4375-5.9453-5.6445-6.3477l-23.879-3.125c-2.8555-11.855-7.5-23.016-13.703-33.152l14.711-19.145h-0.003906c1.9453-2.5742 1.6875-6.1875-0.60156-8.4609l-24.891-24.891c-2.2695-2.2891-5.8867-2.5469-8.4609-0.60156l-19.145 14.711c-10.137-6.2031-21.273-10.848-33.152-13.703l-3.125-23.879v-0.003906c-0.40234-3.2031-3.1172-5.6172-6.3477-5.6406h-35.266c-0.20313-0.011718-0.40234-0.011718-0.60547 0zm18.238 77.387c35.535 0 64.488 28.953 64.488 64.488 0 35.535-28.953 64.488-64.488 64.488-35.566 0-64.488-28.957-64.488-64.488s28.922-64.488 64.488-64.488z" fill="#fff" fill-rule="evenodd"/>
</svg>
