# Blender 3.4.1
# www.blender.org
mtllib player2.mtl
o Cube.001
v 0.357058 -0.007383 -0.086272
v 0.357058 0.008450 -0.078889
v 0.357058 0.084268 -0.282819
v 0.357058 0.100102 -0.275436
v 0.410177 -0.007383 -0.086272
v 0.410177 0.008450 -0.078889
v 0.410177 0.084268 -0.282819
v 0.410177 0.100102 -0.275436
vn -1.0000 -0.0000 -0.0000
vn -0.0000 0.4226 -0.9063
vn 1.0000 -0.0000 -0.0000
vn -0.0000 -0.4226 0.9063
vn -0.0000 -0.9063 -0.4226
vn -0.0000 0.9063 0.4226
vt 0.375000 0.000000
vt 0.375000 1.000000
vt 0.125000 0.750000
vt 0.625000 0.000000
vt 0.625000 1.000000
vt 0.875000 0.750000
vt 0.375000 0.250000
vt 0.125000 0.500000
vt 0.625000 0.250000
vt 0.875000 0.500000
vt 0.375000 0.750000
vt 0.625000 0.750000
vt 0.375000 0.500000
vt 0.625000 0.500000
s 0
usemtl Material.001
f 1/1/1 2/4/1 4/9/1 3/7/1
f 3/7/2 4/9/2 8/14/2 7/13/2
f 7/13/3 8/14/3 6/12/3 5/11/3
f 5/11/4 6/12/4 2/5/4 1/2/4
f 3/8/5 7/13/5 5/11/5 1/3/5
f 8/14/6 4/10/6 2/6/6 6/12/6
o Cube.002
v 0.357058 -0.008450 -0.078889
v 0.357058 0.007383 -0.086272
v 0.357058 -0.100102 -0.275436
v 0.357058 -0.084268 -0.282819
v 0.410177 -0.008450 -0.078889
v 0.410177 0.007383 -0.086272
v 0.410177 -0.100102 -0.275436
v 0.410177 -0.084268 -0.282819
vn -1.0000 -0.0000 -0.0000
vn -0.0000 -0.4226 -0.9063
vn 1.0000 -0.0000 -0.0000
vn -0.0000 0.4226 0.9063
vn -0.0000 -0.9063 0.4226
vn -0.0000 0.9063 -0.4226
vt 0.375000 0.000000
vt 0.375000 1.000000
vt 0.125000 0.750000
vt 0.625000 0.000000
vt 0.625000 1.000000
vt 0.875000 0.750000
vt 0.375000 0.250000
vt 0.125000 0.500000
vt 0.625000 0.250000
vt 0.875000 0.500000
vt 0.375000 0.750000
vt 0.625000 0.750000
vt 0.375000 0.500000
vt 0.625000 0.500000
s 0
usemtl Material.002
f 9/15/7 10/18/7 12/23/7 11/21/7
f 11/21/8 12/23/8 16/28/8 15/27/8
f 15/27/9 16/28/9 14/26/9 13/25/9
f 13/25/10 14/26/10 10/19/10 9/16/10
f 11/22/11 15/27/11 13/25/11 9/17/11
f 16/28/12 12/24/12 10/20/12 14/26/12
o Cube.003
v 0.357058 -0.100102 0.275436
v 0.357058 -0.084268 0.282819
v 0.357058 -0.008450 0.078889
v 0.357058 0.007383 0.086272
v 0.410177 -0.100102 0.275436
v 0.410177 -0.084268 0.282819
v 0.410177 -0.008450 0.078889
v 0.410177 0.007383 0.086272
vn -1.0000 -0.0000 -0.0000
vn -0.0000 0.4226 -0.9063
vn 1.0000 -0.0000 -0.0000
vn -0.0000 -0.4226 0.9063
vn -0.0000 -0.9063 -0.4226
vn -0.0000 0.9063 0.4226
vt 0.375000 0.000000
vt 0.375000 1.000000
vt 0.125000 0.750000
vt 0.625000 0.000000
vt 0.625000 1.000000
vt 0.875000 0.750000
vt 0.375000 0.250000
vt 0.125000 0.500000
vt 0.625000 0.250000
vt 0.875000 0.500000
vt 0.375000 0.750000
vt 0.625000 0.750000
vt 0.375000 0.500000
vt 0.625000 0.500000
s 0
usemtl Material.003
f 17/29/13 18/32/13 20/37/13 19/35/13
f 19/35/14 20/37/14 24/42/14 23/41/14
f 23/41/15 24/42/15 22/40/15 21/39/15
f 21/39/16 22/40/16 18/33/16 17/30/16
f 19/36/17 23/41/17 21/39/17 17/31/17
f 24/42/18 20/38/18 18/34/18 22/40/18
o Cube.004
v 0.357058 0.084268 0.282819
v 0.357058 0.100102 0.275436
v 0.357058 -0.007383 0.086272
v 0.357058 0.008450 0.078889
v 0.410177 0.084268 0.282819
v 0.410177 0.100102 0.275436
v 0.410177 -0.007383 0.086272
v 0.410177 0.008450 0.078889
vn -1.0000 -0.0000 -0.0000
vn -0.0000 -0.4226 -0.9063
vn 1.0000 -0.0000 -0.0000
vn -0.0000 0.4226 0.9063
vn -0.0000 -0.9063 0.4226
vn -0.0000 0.9063 -0.4226
vt 0.375000 0.000000
vt 0.375000 1.000000
vt 0.125000 0.750000
vt 0.625000 0.000000
vt 0.625000 1.000000
vt 0.875000 0.750000
vt 0.375000 0.250000
vt 0.125000 0.500000
vt 0.625000 0.250000
vt 0.875000 0.500000
vt 0.375000 0.750000
vt 0.625000 0.750000
vt 0.375000 0.500000
vt 0.625000 0.500000
s 0
usemtl Material.004
f 25/43/19 26/46/19 28/51/19 27/49/19
f 27/49/20 28/51/20 32/56/20 31/55/20
f 31/55/21 32/56/21 30/54/21 29/53/21
f 29/53/22 30/54/22 26/47/22 25/44/22
f 27/50/23 31/55/23 29/53/23 25/45/23
f 32/56/24 28/52/24 26/48/24 30/54/24
o Cube.005
v 0.325848 -0.065756 0.109162
v 0.325848 0.065756 0.109162
v 0.325848 -0.065756 -0.109162
v 0.325848 0.065756 -0.109162
v 0.387131 -0.065756 0.109162
v 0.387131 0.065756 0.109162
v 0.387131 -0.065756 -0.109162
v 0.387131 0.065756 -0.109162
v 0.325848 -0.065756 0.000000
v 0.325848 0.065756 0.000000
v 0.387131 -0.065756 0.000000
v 0.387131 0.065756 0.000000
v 0.325848 0.065756 -0.054581
v 0.387131 -0.065756 -0.054581
v 0.325848 -0.065756 -0.054581
v 0.387131 0.065756 -0.054581
v 0.325848 -0.065756 0.054581
v 0.387131 0.065756 0.054581
v 0.325848 0.065756 0.054581
v 0.387131 -0.065756 0.054581
v 0.325848 0.123027 0.000000
v 0.387131 0.123027 0.000000
v 0.325848 0.123027 -0.025754
v 0.387131 0.123027 -0.025754
v 0.387131 0.123027 0.026612
v 0.325848 0.123027 0.026612
vn -1.0000 -0.0000 -0.0000
vn -0.0000 -0.0000 -1.0000
vn 1.0000 -0.0000 -0.0000
vn -0.0000 -0.0000 1.0000
vn -0.0000 -1.0000 -0.0000
vn -0.0000 1.0000 -0.0000
vn -0.0000 0.4496 -0.8932
vn -0.0000 0.4388 0.8986
vt 0.375000 1.000000
vt 0.125000 0.750000
vt 0.375000 0.000000
vt 0.625000 1.000000
vt 0.875000 0.750000
vt 0.625000 0.000000
vt 0.375000 0.250000
vt 0.125000 0.500000
vt 0.625000 0.250000
vt 0.875000 0.500000
vt 0.375000 0.750000
vt 0.625000 0.750000
vt 0.375000 0.500000
vt 0.625000 0.500000
vt 0.375000 0.125000
vt 0.125000 0.625000
vt 0.625000 0.125000
vt 0.375000 0.625000
vt 0.625000 0.625000
vt 0.875000 0.562500
vt 0.625000 0.187500
vt 0.375000 0.562500
vt 0.125000 0.562500
vt 0.375000 0.187500
vt 0.625000 0.562500
vt 0.375000 0.062500
vt 0.125000 0.687500
vt 0.625000 0.687500
vt 0.625000 0.062500
vt 0.875000 0.687500
vt 0.375000 0.687500
vt 0.875000 0.625000
vt 0.625000 0.125000
vt 0.625000 0.625000
vt 0.875000 0.562500
vt 0.625000 0.187500
vt 0.625000 0.562500
vt 0.625000 0.687500
vt 0.625000 0.062500
vt 0.875000 0.687500
s 0
usemtl Material.008
f 47/80/25 45/77/25 36/65/25 35/63/25
f 35/63/26 36/65/26 40/70/26 39/69/26
f 52/87/27 50/84/27 38/68/27 37/67/27
f 37/67/28 38/68/28 34/60/28 33/57/28
f 49/83/29 52/87/29 37/67/29 33/58/29
f 50/84/30 51/86/30 34/61/30 38/68/30
f 48/81/31 45/76/31 55/91/31 56/93/31
f 47/79/29 46/78/29 43/74/29 41/72/29
f 46/78/27 48/81/27 44/75/27 43/74/27
f 49/82/25 51/85/25 42/73/25 41/71/25
f 39/69/27 40/70/27 48/81/27 46/78/27
f 35/64/29 39/69/29 46/78/29 47/79/29
f 40/70/30 36/66/30 45/76/30 48/81/30
f 41/71/25 42/73/25 45/77/25 47/80/25
f 33/59/25 34/62/25 51/85/25 49/82/25
f 44/75/27 48/81/27 56/93/27 54/90/27
f 41/72/29 43/74/29 52/87/29 49/83/29
f 43/74/27 44/75/27 50/84/27 52/87/27
f 56/93/30 55/91/30 53/88/30 54/90/30
f 54/90/30 53/88/30 58/96/30 57/94/30
f 42/73/25 51/85/25 58/95/25 53/89/25
f 51/86/32 50/84/32 57/94/32 58/96/32
f 45/77/25 42/73/25 53/89/25 55/92/25
f 50/84/27 44/75/27 54/90/27 57/94/27
o Cube.006
v 0.220125 -0.065756 0.109162
v 0.220125 0.065756 0.109162
v 0.220125 -0.065756 -0.109162
v 0.220125 0.065756 -0.109162
v 0.281408 -0.065756 0.109162
v 0.281408 0.065756 0.109162
v 0.281408 -0.065756 -0.109162
v 0.281408 0.065756 -0.109162
v 0.220125 -0.065756 0.000000
v 0.220125 0.065756 0.000000
v 0.281408 -0.065756 0.000000
v 0.281408 0.065756 0.000000
v 0.220125 0.065756 -0.054581
v 0.281408 -0.065756 -0.054581
v 0.220125 -0.065756 -0.054581
v 0.281408 0.065756 -0.054581
v 0.220125 -0.065756 0.054581
v 0.281408 0.065756 0.054581
v 0.220125 0.065756 0.054581
v 0.281408 -0.065756 0.054581
v 0.220125 0.123027 0.000000
v 0.281408 0.123027 0.000000
v 0.220125 0.123027 -0.025754
v 0.281408 0.123027 -0.025754
v 0.281408 0.123027 0.026612
v 0.220125 0.123027 0.026612
vn -1.0000 -0.0000 -0.0000
vn -0.0000 -0.0000 -1.0000
vn 1.0000 -0.0000 -0.0000
vn -0.0000 -0.0000 1.0000
vn -0.0000 -1.0000 -0.0000
vn -0.0000 1.0000 -0.0000
vn -0.0000 0.4496 -0.8932
vn -0.0000 0.4388 0.8986
vt 0.375000 1.000000
vt 0.125000 0.750000
vt 0.375000 0.000000
vt 0.625000 1.000000
vt 0.875000 0.750000
vt 0.625000 0.000000
vt 0.375000 0.250000
vt 0.125000 0.500000
vt 0.625000 0.250000
vt 0.875000 0.500000
vt 0.375000 0.750000
vt 0.625000 0.750000
vt 0.375000 0.500000
vt 0.625000 0.500000
vt 0.375000 0.125000
vt 0.125000 0.625000
vt 0.625000 0.125000
vt 0.375000 0.625000
vt 0.625000 0.625000
vt 0.875000 0.562500
vt 0.625000 0.187500
vt 0.375000 0.562500
vt 0.125000 0.562500
vt 0.375000 0.187500
vt 0.625000 0.562500
vt 0.375000 0.062500
vt 0.125000 0.687500
vt 0.625000 0.687500
vt 0.625000 0.062500
vt 0.875000 0.687500
vt 0.375000 0.687500
vt 0.875000 0.625000
vt 0.625000 0.125000
vt 0.625000 0.625000
vt 0.875000 0.562500
vt 0.625000 0.187500
vt 0.625000 0.562500
vt 0.625000 0.687500
vt 0.625000 0.062500
vt 0.875000 0.687500
s 0
usemtl Material.009
f 73/120/33 71/117/33 62/105/33 61/103/33
f 61/103/34 62/105/34 66/110/34 65/109/34
f 78/127/35 76/124/35 64/108/35 63/107/35
f 63/107/36 64/108/36 60/100/36 59/97/36
f 75/123/37 78/127/37 63/107/37 59/98/37
f 76/124/38 77/126/38 60/101/38 64/108/38
f 74/121/39 71/116/39 81/131/39 82/133/39
f 73/119/37 72/118/37 69/114/37 67/112/37
f 72/118/35 74/121/35 70/115/35 69/114/35
f 75/122/33 77/125/33 68/113/33 67/111/33
f 65/109/35 66/110/35 74/121/35 72/118/35
f 61/104/37 65/109/37 72/118/37 73/119/37
f 66/110/38 62/106/38 71/116/38 74/121/38
f 67/111/33 68/113/33 71/117/33 73/120/33
f 59/99/33 60/102/33 77/125/33 75/122/33
f 70/115/35 74/121/35 82/133/35 80/130/35
f 67/112/37 69/114/37 78/127/37 75/123/37
f 69/114/35 70/115/35 76/124/35 78/127/35
f 82/133/38 81/131/38 79/128/38 80/130/38
f 80/130/38 79/128/38 84/136/38 83/134/38
f 68/113/33 77/125/33 84/135/33 79/129/33
f 77/126/40 76/124/40 83/134/40 84/136/40
f 71/117/33 68/113/33 79/129/33 81/132/33
f 76/124/35 70/115/35 80/130/35 83/134/35
o Cube.007
v 0.007646 -0.065756 0.109162
v 0.007646 0.065756 0.109162
v 0.007646 -0.065756 -0.109162
v 0.007646 0.065756 -0.109162
v 0.068929 -0.065756 0.109162
v 0.068929 0.065756 0.109162
v 0.068929 -0.065756 -0.109162
v 0.068929 0.065756 -0.109162
v 0.007646 -0.065756 0.000000
v 0.007646 0.065756 0.000000
v 0.068929 -0.065756 0.000000
v 0.068929 0.065756 0.000000
v 0.007646 0.065756 -0.054581
v 0.068929 -0.065756 -0.054581
v 0.007646 -0.065756 -0.054581
v 0.068929 0.065756 -0.054581
v 0.007646 -0.065756 0.054581
v 0.068929 0.065756 0.054581
v 0.007646 0.065756 0.054581
v 0.068929 -0.065756 0.054581
v 0.007646 0.123027 0.000000
v 0.068929 0.123027 0.000000
v 0.007646 0.123027 -0.025754
v 0.068929 0.123027 -0.025754
v 0.068929 0.123027 0.026612
v 0.007646 0.123027 0.026612
vn -1.0000 -0.0000 -0.0000
vn -0.0000 -0.0000 -1.0000
vn 1.0000 -0.0000 -0.0000
vn -0.0000 -0.0000 1.0000
vn -0.0000 -1.0000 -0.0000
vn -0.0000 1.0000 -0.0000
vn -0.0000 0.4496 -0.8932
vn -0.0000 0.4388 0.8986
vt 0.375000 1.000000
vt 0.125000 0.750000
vt 0.375000 0.000000
vt 0.625000 1.000000
vt 0.875000 0.750000
vt 0.625000 0.000000
vt 0.375000 0.250000
vt 0.125000 0.500000
vt 0.625000 0.250000
vt 0.875000 0.500000
vt 0.375000 0.750000
vt 0.625000 0.750000
vt 0.375000 0.500000
vt 0.625000 0.500000
vt 0.375000 0.125000
vt 0.125000 0.625000
vt 0.625000 0.125000
vt 0.375000 0.625000
vt 0.625000 0.625000
vt 0.875000 0.562500
vt 0.625000 0.187500
vt 0.375000 0.562500
vt 0.125000 0.562500
vt 0.375000 0.187500
vt 0.625000 0.562500
vt 0.375000 0.062500
vt 0.125000 0.687500
vt 0.625000 0.687500
vt 0.625000 0.062500
vt 0.875000 0.687500
vt 0.375000 0.687500
vt 0.875000 0.625000
vt 0.625000 0.125000
vt 0.625000 0.625000
vt 0.875000 0.562500
vt 0.625000 0.187500
vt 0.625000 0.562500
vt 0.625000 0.687500
vt 0.625000 0.062500
vt 0.875000 0.687500
s 0
usemtl Material.010
f 99/160/41 97/157/41 88/145/41 87/143/41
f 87/143/42 88/145/42 92/150/42 91/149/42
f 104/167/43 102/164/43 90/148/43 89/147/43
f 89/147/44 90/148/44 86/140/44 85/137/44
f 101/163/45 104/167/45 89/147/45 85/138/45
f 102/164/46 103/166/46 86/141/46 90/148/46
f 100/161/47 97/156/47 107/171/47 108/173/47
f 99/159/45 98/158/45 95/154/45 93/152/45
f 98/158/43 100/161/43 96/155/43 95/154/43
f 101/162/41 103/165/41 94/153/41 93/151/41
f 91/149/43 92/150/43 100/161/43 98/158/43
f 87/144/45 91/149/45 98/158/45 99/159/45
f 92/150/46 88/146/46 97/156/46 100/161/46
f 93/151/41 94/153/41 97/157/41 99/160/41
f 85/139/41 86/142/41 103/165/41 101/162/41
f 96/155/43 100/161/43 108/173/43 106/170/43
f 93/152/45 95/154/45 104/167/45 101/163/45
f 95/154/43 96/155/43 102/164/43 104/167/43
f 108/173/46 107/171/46 105/168/46 106/170/46
f 106/170/46 105/168/46 110/176/46 109/174/46
f 94/153/41 103/165/41 110/175/41 105/169/41
f 103/166/48 102/164/48 109/174/48 110/176/48
f 97/157/41 94/153/41 105/169/41 107/172/41
f 102/164/43 96/155/43 106/170/43 109/174/43
o Cube.008
v 0.113369 -0.065756 0.109162
v 0.113369 0.065756 0.109162
v 0.113369 -0.065756 -0.109162
v 0.113369 0.065756 -0.109162
v 0.174652 -0.065756 0.109162
v 0.174652 0.065756 0.109162
v 0.174652 -0.065756 -0.109162
v 0.174652 0.065756 -0.109162
v 0.113369 -0.065756 0.000000
v 0.113369 0.065756 0.000000
v 0.174652 -0.065756 0.000000
v 0.174652 0.065756 0.000000
v 0.113369 0.065756 -0.054581
v 0.174652 -0.065756 -0.054581
v 0.113369 -0.065756 -0.054581
v 0.174652 0.065756 -0.054581
v 0.113369 -0.065756 0.054581
v 0.174652 0.065756 0.054581
v 0.113369 0.065756 0.054581
v 0.174652 -0.065756 0.054581
v 0.113369 0.123027 0.000000
v 0.174652 0.123027 0.000000
v 0.113369 0.123027 -0.025754
v 0.174652 0.123027 -0.025754
v 0.174652 0.123027 0.026612
v 0.113369 0.123027 0.026612
vn -1.0000 -0.0000 -0.0000
vn -0.0000 -0.0000 -1.0000
vn 1.0000 -0.0000 -0.0000
vn -0.0000 -0.0000 1.0000
vn -0.0000 -1.0000 -0.0000
vn -0.0000 1.0000 -0.0000
vn -0.0000 0.4496 -0.8932
vn -0.0000 0.4388 0.8986
vt 0.375000 1.000000
vt 0.125000 0.750000
vt 0.375000 0.000000
vt 0.625000 1.000000
vt 0.875000 0.750000
vt 0.625000 0.000000
vt 0.375000 0.250000
vt 0.125000 0.500000
vt 0.625000 0.250000
vt 0.875000 0.500000
vt 0.375000 0.750000
vt 0.625000 0.750000
vt 0.375000 0.500000
vt 0.625000 0.500000
vt 0.375000 0.125000
vt 0.125000 0.625000
vt 0.625000 0.125000
vt 0.375000 0.625000
vt 0.625000 0.625000
vt 0.875000 0.562500
vt 0.625000 0.187500
vt 0.375000 0.562500
vt 0.125000 0.562500
vt 0.375000 0.187500
vt 0.625000 0.562500
vt 0.375000 0.062500
vt 0.125000 0.687500
vt 0.625000 0.687500
vt 0.625000 0.062500
vt 0.875000 0.687500
vt 0.375000 0.687500
vt 0.875000 0.625000
vt 0.625000 0.125000
vt 0.625000 0.625000
vt 0.875000 0.562500
vt 0.625000 0.187500
vt 0.625000 0.562500
vt 0.625000 0.687500
vt 0.625000 0.062500
vt 0.875000 0.687500
s 0
usemtl Material.011
f 125/200/49 123/197/49 114/185/49 113/183/49
f 113/183/50 114/185/50 118/190/50 117/189/50
f 130/207/51 128/204/51 116/188/51 115/187/51
f 115/187/52 116/188/52 112/180/52 111/177/52
f 127/203/53 130/207/53 115/187/53 111/178/53
f 128/204/54 129/206/54 112/181/54 116/188/54
f 126/201/55 123/196/55 133/211/55 134/213/55
f 125/199/53 124/198/53 121/194/53 119/192/53
f 124/198/51 126/201/51 122/195/51 121/194/51
f 127/202/49 129/205/49 120/193/49 119/191/49
f 117/189/51 118/190/51 126/201/51 124/198/51
f 113/184/53 117/189/53 124/198/53 125/199/53
f 118/190/54 114/186/54 123/196/54 126/201/54
f 119/191/49 120/193/49 123/197/49 125/200/49
f 111/179/49 112/182/49 129/205/49 127/202/49
f 122/195/51 126/201/51 134/213/51 132/210/51
f 119/192/53 121/194/53 130/207/53 127/203/53
f 121/194/51 122/195/51 128/204/51 130/207/51
f 134/213/54 133/211/54 131/208/54 132/210/54
f 132/210/54 131/208/54 136/216/54 135/214/54
f 120/193/49 129/205/49 136/215/49 131/209/49
f 129/206/56 128/204/56 135/214/56 136/216/56
f 123/197/49 120/193/49 131/209/49 133/212/49
f 128/204/51 122/195/51 132/210/51 135/214/51
o Cylinder
v -0.132050 0.000000 -0.100000
v 0.360810 -0.000000 -0.100000
v -0.132050 -0.019509 -0.098079
v 0.360810 -0.019509 -0.098079
v -0.132050 -0.038268 -0.092388
v 0.360810 -0.038268 -0.092388
v -0.132050 -0.055557 -0.083147
v 0.360810 -0.055557 -0.083147
v -0.132050 -0.070711 -0.070711
v 0.360810 -0.070711 -0.070711
v -0.132050 -0.083147 -0.055557
v 0.360810 -0.083147 -0.055557
v -0.132050 -0.092388 -0.038268
v 0.360810 -0.092388 -0.038268
v -0.132050 -0.098079 -0.019509
v 0.360810 -0.098079 -0.019509
v -0.132050 -0.100000 0.000000
v 0.360810 -0.100000 0.000000
v -0.132050 -0.098079 0.019509
v 0.360810 -0.098079 0.019509
v -0.132050 -0.092388 0.038268
v 0.360810 -0.092388 0.038268
v -0.132050 -0.083147 0.055557
v 0.360810 -0.083147 0.055557
v -0.132050 -0.070711 0.070711
v 0.360810 -0.070711 0.070711
v -0.132050 -0.055557 0.083147
v 0.360810 -0.055557 0.083147
v -0.132050 -0.038268 0.092388
v 0.360810 -0.038268 0.092388
v -0.132050 -0.019509 0.098079
v 0.360810 -0.019509 0.098079
v -0.132050 0.000000 0.100000
v 0.360810 -0.000000 0.100000
v -0.132050 0.019509 0.098079
v 0.360810 0.019509 0.098079
v -0.132050 0.038268 0.092388
v 0.360810 0.038268 0.092388
v -0.132050 0.055557 0.083147
v 0.360810 0.055557 0.083147
v -0.132050 0.070711 0.070711
v 0.360810 0.070711 0.070711
v -0.132050 0.083147 0.055557
v 0.360810 0.083147 0.055557
v -0.132050 0.092388 0.038268
v 0.360810 0.092388 0.038268
v -0.132050 0.098079 0.019509
v 0.360810 0.098079 0.019509
v -0.132050 0.100000 0.000000
v 0.360810 0.100000 0.000000
v -0.132050 0.098079 -0.019509
v 0.360810 0.098079 -0.019509
v -0.132050 0.092388 -0.038268
v 0.360810 0.092388 -0.038268
v -0.132050 0.083147 -0.055557
v 0.360810 0.083147 -0.055557
v -0.132050 0.070711 -0.070711
v 0.360810 0.070711 -0.070711
v -0.132050 0.055557 -0.083147
v 0.360810 0.055557 -0.083147
v -0.132050 0.038268 -0.092388
v 0.360810 0.038268 -0.092388
v -0.132050 0.019509 -0.098079
v 0.360810 0.019509 -0.098079
vn -0.0000 -0.0980 -0.9952
vn -0.0000 -0.2903 -0.9569
vn -0.0000 -0.4714 -0.8819
vn -0.0000 -0.6344 -0.7730
vn -0.0000 -0.7730 -0.6344
vn -0.0000 -0.8819 -0.4714
vn -0.0000 -0.9569 -0.2903
vn -0.0000 -0.9952 -0.0980
vn -0.0000 -0.9952 0.0980
vn -0.0000 -0.9569 0.2903
vn -0.0000 -0.8819 0.4714
vn -0.0000 -0.7730 0.6344
vn -0.0000 -0.6344 0.7730
vn -0.0000 -0.4714 0.8819
vn -0.0000 -0.2903 0.9569
vn -0.0000 -0.0980 0.9952
vn -0.0000 0.0980 0.9952
vn -0.0000 0.2903 0.9569
vn -0.0000 0.4714 0.8819
vn -0.0000 0.6344 0.7730
vn -0.0000 0.7730 0.6344
vn -0.0000 0.8819 0.4714
vn -0.0000 0.9569 0.2903
vn -0.0000 0.9952 0.0980
vn -0.0000 0.9952 -0.0980
vn -0.0000 0.9569 -0.2903
vn -0.0000 0.8819 -0.4714
vn -0.0000 0.7730 -0.6344
vn -0.0000 0.6344 -0.7730
vn -0.0000 0.4714 -0.8819
vn 1.0000 -0.0000 -0.0000
vn -0.0000 0.2903 -0.9569
vn -0.0000 0.0980 -0.9952
vn -1.0000 -0.0000 -0.0000
vt 1.000000 0.500000
vt 0.000000 0.500000
vt 0.750000 0.490000
vt 1.000000 1.000000
vt 0.250000 0.490000
vt 0.000000 1.000000
vt 0.968750 0.500000
vt 0.796822 0.485388
vt 0.968750 1.000000
vt 0.296822 0.485388
vt 0.937500 0.500000
vt 0.841844 0.471731
vt 0.937500 1.000000
vt 0.341844 0.471731
vt 0.906250 0.500000
vt 0.883337 0.449553
vt 0.906250 1.000000
vt 0.383337 0.449553
vt 0.875000 0.500000
vt 0.919706 0.419706
vt 0.875000 1.000000
vt 0.419706 0.419706
vt 0.843750 0.500000
vt 0.949553 0.383337
vt 0.843750 1.000000
vt 0.449553 0.383337
vt 0.812500 0.500000
vt 0.971731 0.341844
vt 0.812500 1.000000
vt 0.471731 0.341844
vt 0.781250 0.500000
vt 0.985388 0.296822
vt 0.781250 1.000000
vt 0.485388 0.296822
vt 0.750000 0.500000
vt 0.990000 0.250000
vt 0.750000 1.000000
vt 0.490000 0.250000
vt 0.718750 0.500000
vt 0.985388 0.203178
vt 0.718750 1.000000
vt 0.485388 0.203178
vt 0.687500 0.500000
vt 0.971731 0.158156
vt 0.687500 1.000000
vt 0.471731 0.158156
vt 0.656250 0.500000
vt 0.949553 0.116663
vt 0.656250 1.000000
vt 0.449553 0.116663
vt 0.625000 0.500000
vt 0.919706 0.080294
vt 0.625000 1.000000
vt 0.419706 0.080294
vt 0.593750 0.500000
vt 0.883337 0.050447
vt 0.593750 1.000000
vt 0.383337 0.050447
vt 0.562500 0.500000
vt 0.841844 0.028269
vt 0.562500 1.000000
vt 0.341844 0.028269
vt 0.531250 0.500000
vt 0.796822 0.014612
vt 0.531250 1.000000
vt 0.296822 0.014612
vt 0.500000 0.500000
vt 0.750000 0.010000
vt 0.500000 1.000000
vt 0.250000 0.010000
vt 0.468750 0.500000
vt 0.703178 0.014612
vt 0.468750 1.000000
vt 0.203178 0.014612
vt 0.437500 0.500000
vt 0.658156 0.028269
vt 0.437500 1.000000
vt 0.158156 0.028269
vt 0.406250 0.500000
vt 0.616663 0.050447
vt 0.406250 1.000000
vt 0.116663 0.050447
vt 0.375000 0.500000
vt 0.580294 0.080294
vt 0.375000 1.000000
vt 0.080294 0.080294
vt 0.343750 0.500000
vt 0.550447 0.116663
vt 0.343750 1.000000
vt 0.050447 0.116663
vt 0.312500 0.500000
vt 0.528269 0.158156
vt 0.312500 1.000000
vt 0.028269 0.158156
vt 0.281250 0.500000
vt 0.514612 0.203178
vt 0.281250 1.000000
vt 0.014612 0.203178
vt 0.250000 0.500000
vt 0.510000 0.250000
vt 0.250000 1.000000
vt 0.010000 0.250000
vt 0.218750 0.500000
vt 0.514612 0.296822
vt 0.218750 1.000000
vt 0.014612 0.296822
vt 0.187500 0.500000
vt 0.528269 0.341844
vt 0.187500 1.000000
vt 0.028269 0.341844
vt 0.156250 0.500000
vt 0.550447 0.383337
vt 0.156250 1.000000
vt 0.050447 0.383337
vt 0.125000 0.500000
vt 0.580294 0.419706
vt 0.125000 1.000000
vt 0.080294 0.419706
vt 0.093750 0.500000
vt 0.616663 0.449553
vt 0.093750 1.000000
vt 0.116663 0.449553
vt 0.062500 0.500000
vt 0.658156 0.471731
vt 0.158156 0.471731
vt 0.062500 1.000000
vt 0.031250 0.500000
vt 0.703178 0.485388
vt 0.203178 0.485388
vt 0.031250 1.000000
s 0
usemtl Material
f 137/217/57 138/220/57 140/225/57 139/223/57
f 139/223/58 140/225/58 142/229/58 141/227/58
f 141/227/59 142/229/59 144/233/59 143/231/59
f 143/231/60 144/233/60 146/237/60 145/235/60
f 145/235/61 146/237/61 148/241/61 147/239/61
f 147/239/62 148/241/62 150/245/62 149/243/62
f 149/243/63 150/245/63 152/249/63 151/247/63
f 151/247/64 152/249/64 154/253/64 153/251/64
f 153/251/65 154/253/65 156/257/65 155/255/65
f 155/255/66 156/257/66 158/261/66 157/259/66
f 157/259/67 158/261/67 160/265/67 159/263/67
f 159/263/68 160/265/68 162/269/68 161/267/68
f 161/267/69 162/269/69 164/273/69 163/271/69
f 163/271/70 164/273/70 166/277/70 165/275/70
f 165/275/71 166/277/71 168/281/71 167/279/71
f 167/279/72 168/281/72 170/285/72 169/283/72
f 169/283/73 170/285/73 172/289/73 171/287/73
f 171/287/74 172/289/74 174/293/74 173/291/74
f 173/291/75 174/293/75 176/297/75 175/295/75
f 175/295/76 176/297/76 178/301/76 177/299/76
f 177/299/77 178/301/77 180/305/77 179/303/77
f 179/303/78 180/305/78 182/309/78 181/307/78
f 181/307/79 182/309/79 184/313/79 183/311/79
f 183/311/80 184/313/80 186/317/80 185/315/80
f 185/315/81 186/317/81 188/321/81 187/319/81
f 187/319/82 188/321/82 190/325/82 189/323/82
f 189/323/83 190/325/83 192/329/83 191/327/83
f 191/327/84 192/329/84 194/333/84 193/331/84
f 193/331/85 194/333/85 196/337/85 195/335/85
f 195/335/86 196/337/86 198/342/86 197/339/86
f 140/226/87 138/221/87 200/345/87 198/341/87 196/338/87 194/334/87 192/330/87 190/326/87 188/322/87 186/318/87 184/314/87 182/310/87 180/306/87 178/302/87 176/298/87 174/294/87 172/290/87 170/286/87 168/282/87 166/278/87 164/274/87 162/270/87 160/266/87 158/262/87 156/258/87 154/254/87 152/250/87 150/246/87 148/242/87 146/238/87 144/234/87 142/230/87
f 197/339/88 198/342/88 200/346/88 199/343/88
f 199/343/89 200/346/89 138/222/89 137/218/89
f 137/219/90 139/224/90 141/228/90 143/232/90 145/236/90 147/240/90 149/244/90 151/248/90 153/252/90 155/256/90 157/260/90 159/264/90 161/268/90 163/272/90 165/276/90 167/280/90 169/284/90 171/288/90 173/292/90 175/296/90 177/300/90 179/304/90 181/308/90 183/312/90 185/316/90 187/320/90 189/324/90 191/328/90 193/332/90 195/336/90 197/340/90 199/344/90
